<svg width="45" height="47" viewBox="0 0 45 47" fill="none" xmlns="http://www.w3.org/2000/svg">
<rect x="0.206543" width="44.7936" height="46.2385" rx="22.3968" fill="white"/>
<path d="M35.0382 34.0292C33.5684 33.9931 32.1337 33.9931 30.6639 34.0292C30.3489 34.0292 30.2789 33.957 30.2789 33.6319C30.2789 30.9587 30.2789 28.2494 30.2789 25.5762C30.2789 24.9621 30.2439 24.348 30.0689 23.77C29.544 21.8916 27.4443 21.2052 25.9395 22.4696C25.1347 23.1198 24.8197 24.0229 24.8197 25.1066C24.8197 27.6353 24.8197 30.164 24.8197 32.6926C24.8197 33.0177 24.7847 33.3429 24.8197 33.7041C24.8547 33.9931 24.7147 34.0653 24.4698 34.0292C22.965 34.0292 21.4952 34.0292 19.9904 34.0292C19.7104 34.0292 19.6404 33.957 19.6404 33.668C19.6754 31.3922 19.6754 29.1164 19.6754 26.8044C19.6754 23.9868 19.6754 21.1691 19.6404 18.3876C19.6404 18.0625 19.7104 17.9902 19.9904 17.9902C21.4952 17.9902 22.965 17.9902 24.4698 17.9902C24.7497 17.9902 24.8197 18.0625 24.8197 18.3515C24.8197 18.9294 24.8197 19.5074 24.8197 20.1938C24.9247 20.0854 24.9597 20.0493 24.9947 20.0132C26.3595 17.9541 28.2842 17.3761 30.5589 17.7374C33.1835 18.1708 34.8633 20.0493 35.2832 22.9392C35.3882 23.6255 35.4232 24.3119 35.4232 24.9983C35.4232 27.8882 35.4232 30.7419 35.4232 33.6319C35.4232 33.9208 35.3532 34.0292 35.0382 34.0292Z" fill="#060807"/>
<path d="M16.8409 26.0092C16.8409 28.5379 16.8409 31.0666 16.8409 33.5953C16.8409 33.9204 16.7709 34.0287 16.4559 34.0287C14.9862 33.9926 13.5164 34.0287 12.0466 34.0287C11.7666 34.0287 11.6966 33.9565 11.6966 33.6675C11.6966 28.574 11.6966 23.4444 11.6966 18.351C11.6966 18.0981 11.7666 17.9897 12.0466 17.9897C13.5514 17.9897 15.0561 17.9897 16.5609 17.9897C16.8759 17.9897 16.9109 18.0981 16.9109 18.3871C16.8409 20.9158 16.8409 23.4444 16.8409 26.0092Z" fill="#060807"/>
<path d="M17.0858 13.7994C16.7358 15.2443 15.3011 16.0752 13.6563 15.7862C11.9065 15.4972 10.9267 13.7271 11.5566 11.9932C11.9765 10.9095 12.9914 10.2593 14.2862 10.2954C16.2459 10.2593 17.5407 11.8848 17.0858 13.7994Z" fill="#060807"/>
</svg>
