<svg width="47" height="47" viewBox="0 0 47 47" fill="none" xmlns="http://www.w3.org/2000/svg">
<rect width="46.2385" height="46.2385" rx="23.1193" fill="white"/>
<path d="M37.0872 34.3486L34.9975 32.2568C34.7775 32.1467 34.6675 31.8165 34.6675 31.5963V14.8623C34.6675 14.6421 34.7775 14.3119 34.9975 14.0917L37.0872 11.6697V11.5596H29.6083L23.9992 25.7614L17.6201 11.5596H9.92128V11.6697L11.901 14.422C12.3409 14.8623 12.4509 15.5229 12.4509 16.0733V28.1834C12.5609 28.844 12.4509 29.6146 12.1209 30.2752L9.1514 34.3486V34.4587H17.0702V34.3486L14.1007 30.3853C13.7707 29.7247 13.6607 29.0642 13.7707 28.2935V17.2843C13.8807 17.5045 13.9907 17.5045 14.1007 17.9449L21.5795 34.6788H21.6895L28.9484 16.5137C28.8384 17.1742 28.8384 17.9449 28.8384 18.4954V31.4862C28.8384 31.8165 28.7284 32.0366 28.5085 32.2568L26.3088 34.3486V34.4587H37.0872V34.3486Z" fill="#060807"/>
</svg>
